<svg width="1553" height="909" viewBox="0 0 1553 909" fill="none" xmlns="http://www.w3.org/2000/svg">
<rect width="1553" height="909" />
<path fill-rule="evenodd" clip-rule="evenodd" d="M783.973 234.61C761.712 227.378 734.469 228.77 699.753 238.021L697.693 230.29C733.06 220.866 762.065 219.08 786.445 227.001C810.014 234.658 828.673 251.188 844.44 277.24L861.936 268.803L858.507 314.867L820.329 288.866L837.2 280.731C822.227 256.225 805.049 241.457 783.973 234.61Z" fill="#132052"/>
<path fill-rule="evenodd" clip-rule="evenodd" d="M480.693 552.844C485.56 575.739 500.387 598.636 525.757 624.076L520.092 629.725C494.247 603.808 478.198 579.581 472.868 554.508C467.714 530.268 472.7 505.844 487.378 479.163L471.324 468.23L512.931 448.167L509.502 494.231L494.022 483.688C480.286 508.908 476.085 531.169 480.693 552.844Z" fill="#132052"/>
<path fill-rule="evenodd" clip-rule="evenodd" d="M911.407 682.558C928.8 666.896 941.216 642.607 950.563 607.916L958.288 609.997C948.766 645.339 935.81 671.35 916.76 688.504C898.345 705.086 874.7 712.98 844.255 713.61L842.813 732.979L804.635 706.978L846.242 686.916L844.852 705.593C873.56 704.879 894.939 697.386 911.407 682.558Z" fill="#132052"/>
<circle cx="199" cy="182" r="163" fill="#3E9FE6"/>
<path d="M80.4344 177.6V156.347L114.862 101.661L130.646 111.977L101.19 158.833L102.93 161.443H157.243V177.6H80.4344ZM128.036 195V129.626H146.803V195H128.036ZM207.315 197.361C200.106 197.361 193.933 196.201 188.796 193.881C183.659 191.479 179.475 188.247 176.243 184.187C173.095 180.127 170.733 175.446 169.159 170.143C167.667 164.757 166.922 159.081 166.922 153.116V146.031C166.922 137.746 168.372 130.247 171.272 123.536C174.172 116.824 178.605 111.48 184.57 107.503C190.536 103.526 198.117 101.537 207.315 101.537C216.512 101.537 224.052 103.526 229.935 107.503C235.9 111.48 240.333 116.824 243.233 123.536C246.133 130.247 247.583 137.746 247.583 146.031V153.116C247.583 159.081 246.796 164.757 245.222 170.143C243.73 175.446 241.369 180.127 238.137 184.187C234.989 188.247 230.846 191.479 225.709 193.881C220.655 196.201 214.523 197.361 207.315 197.361ZM207.315 178.594C214.026 178.594 218.997 176.274 222.229 171.634C225.543 166.911 227.2 159.62 227.2 149.76C227.2 139.32 225.502 131.821 222.105 127.264C218.79 122.624 213.86 120.304 207.315 120.304C200.603 120.304 195.59 122.624 192.276 127.264C188.962 131.821 187.305 139.237 187.305 149.511C187.305 159.454 188.92 166.787 192.152 171.51C195.466 176.233 200.52 178.594 207.315 178.594ZM282.842 183.441V120.926H300.491V183.441H282.842ZM260.844 160.324V144.167H322.614V160.324H260.844Z" fill="white"/>
<path d="M106.964 243.636C106.837 242.557 106.318 241.719 105.409 241.122C104.5 240.526 103.385 240.227 102.064 240.227C101.098 240.227 100.253 240.384 99.5284 240.696C98.8111 241.009 98.25 241.438 97.8452 241.985C97.4474 242.532 97.2486 243.153 97.2486 243.849C97.2486 244.432 97.3871 244.933 97.6641 245.352C97.9482 245.763 98.3104 246.108 98.7507 246.385C99.1911 246.655 99.6527 246.879 100.136 247.056C100.619 247.227 101.062 247.365 101.467 247.472L103.683 248.068C104.251 248.217 104.884 248.423 105.58 248.686C106.283 248.949 106.954 249.308 107.593 249.762C108.239 250.21 108.772 250.785 109.191 251.488C109.61 252.191 109.82 253.054 109.82 254.077C109.82 255.256 109.511 256.321 108.893 257.273C108.282 258.224 107.387 258.981 106.208 259.542C105.036 260.103 103.612 260.384 101.936 260.384C100.374 260.384 99.0206 260.131 97.8771 259.627C96.7408 259.123 95.8459 258.42 95.1925 257.518C94.5462 256.616 94.1804 255.568 94.0952 254.375H96.8224C96.8935 255.199 97.1705 255.881 97.6534 256.42C98.1435 256.953 98.7614 257.351 99.5071 257.614C100.26 257.869 101.07 257.997 101.936 257.997C102.945 257.997 103.85 257.834 104.653 257.507C105.455 257.173 106.091 256.712 106.56 256.122C107.028 255.526 107.263 254.83 107.263 254.034C107.263 253.31 107.06 252.72 106.656 252.266C106.251 251.811 105.718 251.442 105.058 251.158C104.397 250.874 103.683 250.625 102.916 250.412L100.232 249.645C98.527 249.155 97.1776 248.455 96.1832 247.546C95.1889 246.637 94.6918 245.447 94.6918 243.977C94.6918 242.756 95.022 241.69 95.6825 240.781C96.3501 239.865 97.245 239.155 98.3672 238.651C99.4964 238.139 100.757 237.884 102.149 237.884C103.555 237.884 104.805 238.136 105.899 238.64C106.993 239.137 107.859 239.819 108.499 240.685C109.145 241.552 109.486 242.536 109.521 243.636H106.964ZM112.97 240.526V238.182H129.334V240.526H122.473V260H119.831V240.526H112.97ZM131.758 260H128.988L136.999 238.182H139.726L147.738 260H144.968L138.448 241.634H138.278L131.758 260ZM132.78 251.477H143.945V253.821H132.78V251.477ZM151.136 260V238.182H153.778V249.006H154.034L163.835 238.182H167.287L158.125 248.026L167.287 260H164.091L156.506 249.858L153.778 252.926V260H151.136ZM170.706 260V238.182H183.874V240.526H173.349V247.898H183.192V250.241H173.349V257.656H184.045V260H170.706ZM188.636 260V238.182H191.278V247.898H202.912V238.182H205.554V260H202.912V250.241H191.278V260H188.636ZM229.252 249.091C229.252 251.392 228.837 253.381 228.006 255.057C227.175 256.733 226.035 258.026 224.586 258.935C223.137 259.844 221.482 260.298 219.622 260.298C217.761 260.298 216.106 259.844 214.657 258.935C213.208 258.026 212.068 256.733 211.237 255.057C210.406 253.381 209.991 251.392 209.991 249.091C209.991 246.79 210.406 244.801 211.237 243.125C212.068 241.449 213.208 240.156 214.657 239.247C216.106 238.338 217.761 237.884 219.622 237.884C221.482 237.884 223.137 238.338 224.586 239.247C226.035 240.156 227.175 241.449 228.006 243.125C228.837 244.801 229.252 246.79 229.252 249.091ZM226.695 249.091C226.695 247.202 226.379 245.607 225.747 244.308C225.122 243.008 224.274 242.024 223.201 241.357C222.136 240.689 220.943 240.355 219.622 240.355C218.301 240.355 217.104 240.689 216.031 241.357C214.966 242.024 214.117 243.008 213.485 244.308C212.86 245.607 212.548 247.202 212.548 249.091C212.548 250.98 212.86 252.575 213.485 253.874C214.117 255.174 214.966 256.158 216.031 256.825C217.104 257.493 218.301 257.827 219.622 257.827C220.943 257.827 222.136 257.493 223.201 256.825C224.274 256.158 225.122 255.174 225.747 253.874C226.379 252.575 226.695 250.98 226.695 249.091ZM233.695 260V238.182H236.337V257.656H246.479V260H233.695ZM257.303 260H250.57V238.182H257.601C259.718 238.182 261.529 238.619 263.034 239.492C264.54 240.359 265.694 241.605 266.497 243.232C267.299 244.851 267.7 246.79 267.7 249.048C267.7 251.321 267.296 253.278 266.486 254.918C265.676 256.552 264.497 257.809 262.949 258.69C261.401 259.563 259.519 260 257.303 260ZM253.212 257.656H257.132C258.936 257.656 260.431 257.308 261.617 256.612C262.803 255.916 263.688 254.925 264.27 253.64C264.852 252.354 265.144 250.824 265.144 249.048C265.144 247.287 264.856 245.771 264.281 244.499C263.705 243.221 262.846 242.241 261.703 241.559C260.559 240.87 259.135 240.526 257.431 240.526H253.212V257.656ZM272.132 260V238.182H285.3V240.526H274.774V247.898H284.618V250.241H274.774V257.656H285.47V260H272.132ZM290.062 260V238.182H297.434C299.139 238.182 300.538 238.473 301.632 239.055C302.725 239.631 303.535 240.423 304.061 241.431C304.586 242.44 304.849 243.587 304.849 244.872C304.849 246.158 304.586 247.298 304.061 248.292C303.535 249.286 302.729 250.067 301.642 250.636C300.556 251.197 299.167 251.477 297.477 251.477H291.511V249.091H297.392C298.556 249.091 299.494 248.92 300.204 248.58C300.921 248.239 301.44 247.756 301.759 247.131C302.086 246.499 302.249 245.746 302.249 244.872C302.249 243.999 302.086 243.235 301.759 242.582C301.433 241.928 300.911 241.424 300.193 241.069C299.476 240.707 298.528 240.526 297.349 240.526H292.704V260H290.062ZM300.332 250.199L305.701 260H302.633L297.349 250.199H300.332ZM114.711 274.182V296H112.069V274.182H114.711ZM137.309 274.182V296H134.753L122.863 278.869H122.65V296H120.008V274.182H122.565L134.497 291.355H134.71V274.182H137.309ZM141.403 276.526V274.182H157.767V276.526H150.906V296H148.264V276.526H141.403ZM161.844 296V274.182H175.012V276.526H164.486V283.898H174.33V286.241H164.486V293.656H175.182V296H161.844ZM179.774 296V274.182H187.146C188.851 274.182 190.25 274.473 191.343 275.055C192.437 275.631 193.247 276.423 193.772 277.431C194.298 278.44 194.561 279.587 194.561 280.872C194.561 282.158 194.298 283.298 193.772 284.292C193.247 285.286 192.441 286.067 191.354 286.636C190.267 287.197 188.879 287.477 187.189 287.477H181.223V285.091H187.103C188.268 285.091 189.206 284.92 189.916 284.58C190.633 284.239 191.152 283.756 191.471 283.131C191.798 282.499 191.961 281.746 191.961 280.872C191.961 279.999 191.798 279.235 191.471 278.582C191.145 277.928 190.623 277.424 189.905 277.069C189.188 276.707 188.24 276.526 187.061 276.526H182.416V296H179.774ZM190.044 286.199L195.413 296H192.345L187.061 286.199H190.044ZM199.36 274.182L205.837 292.548H206.093L212.57 274.182H215.34L207.329 296H204.602L196.59 274.182H199.36ZM221.381 274.182V296H218.739V274.182H221.381ZM226.678 296V274.182H239.846V276.526H229.32V283.898H239.164V286.241H229.32V293.656H240.016V296H226.678ZM248.571 296L242.605 274.182H245.29L249.849 291.952H250.062L254.707 274.182H257.69L262.335 291.952H262.548L267.108 274.182H269.793L263.827 296H261.099L256.284 278.614H256.114L251.298 296H248.571ZM285.016 279.636C284.888 278.557 284.37 277.719 283.461 277.122C282.552 276.526 281.437 276.227 280.116 276.227C279.15 276.227 278.305 276.384 277.58 276.696C276.863 277.009 276.302 277.438 275.897 277.985C275.499 278.532 275.3 279.153 275.3 279.849C275.3 280.432 275.439 280.933 275.716 281.352C276 281.763 276.362 282.108 276.802 282.385C277.243 282.655 277.704 282.879 278.187 283.056C278.67 283.227 279.114 283.365 279.519 283.472L281.735 284.068C282.303 284.217 282.935 284.423 283.631 284.686C284.334 284.949 285.006 285.308 285.645 285.762C286.291 286.21 286.824 286.785 287.243 287.488C287.662 288.191 287.871 289.054 287.871 290.077C287.871 291.256 287.562 292.321 286.945 293.273C286.334 294.224 285.439 294.981 284.26 295.542C283.088 296.103 281.664 296.384 279.988 296.384C278.425 296.384 277.072 296.131 275.929 295.627C274.793 295.123 273.898 294.42 273.244 293.518C272.598 292.616 272.232 291.568 272.147 290.375H274.874C274.945 291.199 275.222 291.881 275.705 292.42C276.195 292.953 276.813 293.351 277.559 293.614C278.312 293.869 279.121 293.997 279.988 293.997C280.996 293.997 281.902 293.834 282.704 293.507C283.507 293.173 284.143 292.712 284.611 292.122C285.08 291.526 285.315 290.83 285.315 290.034C285.315 289.31 285.112 288.72 284.707 288.266C284.302 287.811 283.77 287.442 283.109 287.158C282.449 286.874 281.735 286.625 280.968 286.412L278.283 285.645C276.579 285.155 275.229 284.455 274.235 283.546C273.241 282.637 272.744 281.447 272.744 279.977C272.744 278.756 273.074 277.69 273.734 276.781C274.402 275.865 275.297 275.155 276.419 274.651C277.548 274.139 278.809 273.884 280.201 273.884C281.607 273.884 282.857 274.136 283.951 274.64C285.045 275.137 285.911 275.819 286.55 276.685C287.197 277.552 287.538 278.536 287.573 279.636H285.016Z" fill="white"/>
<path d="M1197.5 495L1157.5 471.906V518.094L1197.5 495ZM963 499H1161.5V491H963V499Z" fill="#132052"/>
<circle cx="608" cy="293" r="163" fill="#132052"/>
<path d="M524.61 314.361C517.401 314.361 511.187 312.994 505.967 310.26C500.747 307.443 496.729 303.673 493.911 298.95C491.177 294.227 489.81 289.007 489.81 283.29H509.447C509.447 286.107 510.069 288.593 511.311 290.747C512.637 292.819 514.46 294.476 516.78 295.719C519.1 296.879 521.751 297.459 524.734 297.459C528.049 297.459 530.824 296.796 533.061 295.47C535.381 294.061 537.163 292.197 538.406 289.877C539.649 287.474 540.27 284.781 540.27 281.799C540.27 278.733 539.649 276.04 538.406 273.72C537.246 271.317 535.506 269.411 533.186 268.003C530.949 266.594 528.214 265.89 524.983 265.89C522 265.89 519.307 266.511 516.904 267.754C514.501 268.997 512.72 270.571 511.56 272.477H492.42L497.019 221.271H552.077V238.671H505.097L512.927 233.451L510.193 262.907L505.47 261.664C507.956 258.681 510.939 256.196 514.419 254.207C517.981 252.136 522.621 251.1 528.339 251.1C534.967 251.1 540.601 252.467 545.241 255.201C549.964 257.853 553.569 261.457 556.054 266.014C558.623 270.489 559.907 275.501 559.907 281.053V282.669C559.907 288.22 558.54 293.399 555.806 298.204C553.071 303.01 549.053 306.904 543.75 309.887C538.53 312.87 532.15 314.361 524.61 314.361ZM611.555 314.361C604.346 314.361 598.173 313.201 593.036 310.881C587.899 308.479 583.715 305.247 580.483 301.187C577.335 297.127 574.973 292.446 573.399 287.143C571.908 281.757 571.162 276.081 571.162 270.116V263.031C571.162 254.746 572.612 247.247 575.512 240.536C578.412 233.824 582.845 228.48 588.81 224.503C594.776 220.526 602.358 218.537 611.555 218.537C620.752 218.537 628.292 220.526 634.175 224.503C640.14 228.48 644.573 233.824 647.473 240.536C650.373 247.247 651.823 254.746 651.823 263.031V270.116C651.823 276.081 651.036 281.757 649.462 287.143C647.97 292.446 645.609 297.127 642.378 301.187C639.229 305.247 635.086 308.479 629.949 310.881C624.895 313.201 618.763 314.361 611.555 314.361ZM611.555 295.594C618.266 295.594 623.238 293.274 626.469 288.634C629.783 283.911 631.44 276.62 631.44 266.76C631.44 256.32 629.742 248.821 626.345 244.264C623.03 239.624 618.1 237.304 611.555 237.304C604.843 237.304 599.83 239.624 596.516 244.264C593.202 248.821 591.545 256.237 591.545 266.511C591.545 276.454 593.16 283.787 596.392 288.51C599.706 293.233 604.76 295.594 611.555 295.594ZM687.083 300.441V237.926H704.731V300.441H687.083ZM665.084 277.324V261.167H726.854V277.324H665.084Z" fill="white"/>
<path d="M554.043 350H551.401C551.244 349.24 550.971 348.572 550.58 347.997C550.197 347.422 549.728 346.939 549.174 346.548C548.627 346.151 548.02 345.852 547.352 345.653C546.685 345.455 545.989 345.355 545.264 345.355C543.943 345.355 542.746 345.689 541.674 346.357C540.609 347.024 539.76 348.008 539.128 349.308C538.503 350.607 538.19 352.202 538.19 354.091C538.19 355.98 538.503 357.575 539.128 358.874C539.76 360.174 540.609 361.158 541.674 361.825C542.746 362.493 543.943 362.827 545.264 362.827C545.989 362.827 546.685 362.727 547.352 362.528C548.02 362.33 548.627 362.035 549.174 361.644C549.728 361.246 550.197 360.76 550.58 360.185C550.971 359.602 551.244 358.935 551.401 358.182H554.043C553.844 359.297 553.482 360.295 552.956 361.175C552.43 362.056 551.777 362.805 550.996 363.423C550.214 364.034 549.337 364.499 548.364 364.819C547.398 365.138 546.365 365.298 545.264 365.298C543.403 365.298 541.749 364.844 540.3 363.935C538.851 363.026 537.711 361.733 536.88 360.057C536.049 358.381 535.634 356.392 535.634 354.091C535.634 351.79 536.049 349.801 536.88 348.125C537.711 346.449 538.851 345.156 540.3 344.247C541.749 343.338 543.403 342.884 545.264 342.884C546.365 342.884 547.398 343.043 548.364 343.363C549.337 343.683 550.214 344.151 550.996 344.769C551.777 345.38 552.43 346.126 552.956 347.006C553.482 347.88 553.844 348.878 554.043 350ZM576.721 354.091C576.721 356.392 576.306 358.381 575.475 360.057C574.644 361.733 573.504 363.026 572.055 363.935C570.606 364.844 568.951 365.298 567.09 365.298C565.23 365.298 563.575 364.844 562.126 363.935C560.677 363.026 559.537 361.733 558.706 360.057C557.875 358.381 557.46 356.392 557.46 354.091C557.46 351.79 557.875 349.801 558.706 348.125C559.537 346.449 560.677 345.156 562.126 344.247C563.575 343.338 565.23 342.884 567.09 342.884C568.951 342.884 570.606 343.338 572.055 344.247C573.504 345.156 574.644 346.449 575.475 348.125C576.306 349.801 576.721 351.79 576.721 354.091ZM574.164 354.091C574.164 352.202 573.848 350.607 573.216 349.308C572.591 348.008 571.742 347.024 570.67 346.357C569.605 345.689 568.411 345.355 567.09 345.355C565.769 345.355 564.573 345.689 563.5 346.357C562.435 347.024 561.586 348.008 560.954 349.308C560.329 350.607 560.017 352.202 560.017 354.091C560.017 355.98 560.329 357.575 560.954 358.874C561.586 360.174 562.435 361.158 563.5 361.825C564.573 362.493 565.769 362.827 567.09 362.827C568.411 362.827 569.605 362.493 570.67 361.825C571.742 361.158 572.591 360.174 573.216 358.874C573.848 357.575 574.164 355.98 574.164 354.091ZM598.465 343.182V365H595.908L584.019 347.869H583.806V365H581.164V343.182H583.72L595.652 360.355H595.865V343.182H598.465ZM621.308 350H618.666C618.51 349.24 618.237 348.572 617.846 347.997C617.462 347.422 616.994 346.939 616.44 346.548C615.893 346.151 615.286 345.852 614.618 345.653C613.95 345.455 613.254 345.355 612.53 345.355C611.209 345.355 610.012 345.689 608.94 346.357C607.874 347.024 607.026 348.008 606.393 349.308C605.768 350.607 605.456 352.202 605.456 354.091C605.456 355.98 605.768 357.575 606.393 358.874C607.026 360.174 607.874 361.158 608.94 361.825C610.012 362.493 611.209 362.827 612.53 362.827C613.254 362.827 613.95 362.727 614.618 362.528C615.286 362.33 615.893 362.035 616.44 361.644C616.994 361.246 617.462 360.76 617.846 360.185C618.237 359.602 618.51 358.935 618.666 358.182H621.308C621.109 359.297 620.747 360.295 620.222 361.175C619.696 362.056 619.043 362.805 618.261 363.423C617.48 364.034 616.603 364.499 615.63 364.819C614.664 365.138 613.631 365.298 612.53 365.298C610.669 365.298 609.014 364.844 607.565 363.935C606.116 363.026 604.977 361.733 604.146 360.057C603.315 358.381 602.899 356.392 602.899 354.091C602.899 351.79 603.315 349.801 604.146 348.125C604.977 346.449 606.116 345.156 607.565 344.247C609.014 343.338 610.669 342.884 612.53 342.884C613.631 342.884 614.664 343.043 615.63 343.363C616.603 343.683 617.48 344.151 618.261 344.769C619.043 345.38 619.696 346.126 620.222 347.006C620.747 347.88 621.109 348.878 621.308 350ZM625.578 365V343.182H638.745V345.526H628.22V352.898H638.063V355.241H628.22V362.656H638.916V365H625.578ZM643.507 365V343.182H650.879C652.591 343.182 653.99 343.491 655.077 344.109C656.171 344.719 656.98 345.547 657.506 346.591C658.031 347.635 658.294 348.8 658.294 350.085C658.294 351.371 658.031 352.539 657.506 353.59C656.987 354.641 656.185 355.479 655.098 356.104C654.012 356.722 652.619 357.031 650.922 357.031H645.638V354.688H650.837C652.009 354.688 652.95 354.485 653.66 354.08C654.37 353.675 654.885 353.129 655.205 352.44C655.531 351.744 655.695 350.959 655.695 350.085C655.695 349.212 655.531 348.43 655.205 347.741C654.885 347.053 654.367 346.513 653.649 346.122C652.932 345.724 651.98 345.526 650.794 345.526H646.149V365H643.507ZM661.357 345.526V343.182H677.721V345.526H670.86V365H668.218V345.526H661.357ZM560.605 381.526V379.182H576.969V381.526H570.108V401H567.466V381.526H560.605ZM581.046 401V379.182H594.214V381.526H583.688V388.898H593.532V391.241H583.688V398.656H594.384V401H581.046ZM610.908 384.636C610.78 383.557 610.262 382.719 609.352 382.122C608.443 381.526 607.328 381.227 606.007 381.227C605.041 381.227 604.196 381.384 603.472 381.696C602.754 382.009 602.193 382.438 601.789 382.985C601.391 383.532 601.192 384.153 601.192 384.849C601.192 385.432 601.33 385.933 601.607 386.352C601.892 386.763 602.254 387.108 602.694 387.385C603.134 387.655 603.596 387.879 604.079 388.056C604.562 388.227 605.006 388.365 605.411 388.472L607.627 389.068C608.195 389.217 608.827 389.423 609.523 389.686C610.226 389.949 610.897 390.308 611.536 390.762C612.183 391.21 612.715 391.785 613.134 392.488C613.553 393.191 613.763 394.054 613.763 395.077C613.763 396.256 613.454 397.321 612.836 398.273C612.225 399.224 611.33 399.981 610.151 400.542C608.98 401.103 607.556 401.384 605.879 401.384C604.317 401.384 602.964 401.131 601.82 400.627C600.684 400.123 599.789 399.42 599.136 398.518C598.49 397.616 598.124 396.568 598.039 395.375H600.766C600.837 396.199 601.114 396.881 601.597 397.42C602.087 397.953 602.705 398.351 603.45 398.614C604.203 398.869 605.013 398.997 605.879 398.997C606.888 398.997 607.794 398.834 608.596 398.507C609.399 398.173 610.034 397.712 610.503 397.122C610.972 396.526 611.206 395.83 611.206 395.034C611.206 394.31 611.004 393.72 610.599 393.266C610.194 392.811 609.661 392.442 609.001 392.158C608.34 391.874 607.627 391.625 606.86 391.412L604.175 390.645C602.47 390.155 601.121 389.455 600.127 388.546C599.132 387.637 598.635 386.447 598.635 384.977C598.635 383.756 598.965 382.69 599.626 381.781C600.294 380.865 601.188 380.155 602.311 379.651C603.44 379.139 604.7 378.884 606.093 378.884C607.499 378.884 608.749 379.136 609.843 379.64C610.936 380.137 611.803 380.819 612.442 381.685C613.088 382.552 613.429 383.536 613.465 384.636H610.908ZM616.914 381.526V379.182H633.277V381.526H626.417V401H623.775V381.526H616.914ZM649.287 384.636C649.159 383.557 648.64 382.719 647.731 382.122C646.822 381.526 645.707 381.227 644.386 381.227C643.42 381.227 642.575 381.384 641.851 381.696C641.133 382.009 640.572 382.438 640.167 382.985C639.77 383.532 639.571 384.153 639.571 384.849C639.571 385.432 639.709 385.933 639.986 386.352C640.27 386.763 640.633 387.108 641.073 387.385C641.513 387.655 641.975 387.879 642.458 388.056C642.941 388.227 643.385 388.365 643.79 388.472L646.006 389.068C646.574 389.217 647.206 389.423 647.902 389.686C648.605 389.949 649.276 390.308 649.915 390.762C650.562 391.21 651.094 391.785 651.513 392.488C651.932 393.191 652.142 394.054 652.142 395.077C652.142 396.256 651.833 397.321 651.215 398.273C650.604 399.224 649.709 399.981 648.53 400.542C647.358 401.103 645.934 401.384 644.258 401.384C642.696 401.384 641.343 401.131 640.199 400.627C639.063 400.123 638.168 399.42 637.515 398.518C636.868 397.616 636.503 396.568 636.417 395.375H639.145C639.216 396.199 639.493 396.881 639.976 397.42C640.466 397.953 641.084 398.351 641.829 398.614C642.582 398.869 643.392 398.997 644.258 398.997C645.267 398.997 646.172 398.834 646.975 398.507C647.778 398.173 648.413 397.712 648.882 397.122C649.351 396.526 649.585 395.83 649.585 395.034C649.585 394.31 649.383 393.72 648.978 393.266C648.573 392.811 648.04 392.442 647.38 392.158C646.719 391.874 646.006 391.625 645.238 391.412L642.554 390.645C640.849 390.155 639.5 389.455 638.506 388.546C637.511 387.637 637.014 386.447 637.014 384.977C637.014 383.756 637.344 382.69 638.005 381.781C638.672 380.865 639.567 380.155 640.689 379.651C641.819 379.139 643.079 378.884 644.471 378.884C645.878 378.884 647.128 379.136 648.221 379.64C649.315 380.137 650.182 380.819 650.821 381.685C651.467 382.552 651.808 383.536 651.844 384.636H649.287Z" fill="white"/>
<circle cx="962" cy="492" r="163" fill="#132052"/>
<path d="M877.35 513.361C870.307 513.361 864.175 512.077 858.955 509.509C853.818 506.857 849.883 503.294 847.148 498.82C844.414 494.346 843.047 489.291 843.047 483.657H862.684C862.684 487.469 863.968 490.576 866.537 492.979C869.105 495.299 872.71 496.459 877.35 496.459C880.415 496.459 883.025 495.879 885.18 494.719C887.334 493.559 888.991 491.984 890.151 489.996C891.311 487.924 891.891 485.604 891.891 483.036C891.891 479.059 890.607 475.786 888.038 473.217C885.553 470.649 881.99 469.364 877.35 469.364C874.864 469.364 872.668 469.737 870.763 470.483C868.94 471.229 867.365 472.14 866.04 473.217L856.843 457.681L884.31 439.784L883.191 437.671H846.775V420.271H907.924V439.163L876.231 459.297L866.288 456.563C867.945 456.066 869.685 455.693 871.508 455.444C873.414 455.113 875.444 454.947 877.598 454.947C884.641 454.947 890.69 456.107 895.744 458.427C900.798 460.747 904.693 464.02 907.427 468.246C910.244 472.389 911.653 477.236 911.653 482.787V484.279C911.653 489.83 910.244 494.801 907.427 499.193C904.693 503.584 900.757 507.064 895.62 509.633C890.565 512.119 884.475 513.361 877.35 513.361ZM964.826 513.361C957.618 513.361 951.445 512.201 946.308 509.881C941.171 507.479 936.986 504.247 933.755 500.187C930.606 496.127 928.245 491.446 926.671 486.143C925.179 480.757 924.434 475.081 924.434 469.116V462.031C924.434 453.746 925.884 446.247 928.784 439.536C931.684 432.824 936.116 427.48 942.082 423.503C948.048 419.526 955.629 417.537 964.826 417.537C974.024 417.537 981.564 419.526 987.446 423.503C993.412 427.48 997.845 432.824 1000.75 439.536C1003.65 446.247 1005.1 453.746 1005.1 462.031V469.116C1005.1 475.081 1004.31 480.757 1002.73 486.143C1001.24 491.446 998.881 496.127 995.649 500.187C992.501 504.247 988.358 507.479 983.221 509.881C978.166 512.201 972.035 513.361 964.826 513.361ZM964.826 494.594C971.538 494.594 976.509 492.274 979.741 487.634C983.055 482.911 984.712 475.62 984.712 465.76C984.712 455.32 983.014 447.821 979.616 443.264C976.302 438.624 971.372 436.304 964.826 436.304C958.115 436.304 953.102 438.624 949.788 443.264C946.474 447.821 944.816 455.237 944.816 465.511C944.816 475.454 946.432 482.787 949.664 487.51C952.978 492.233 958.032 494.594 964.826 494.594ZM1040.35 499.441V436.926H1058V499.441H1040.35ZM1018.36 476.324V460.167H1080.13V476.324H1018.36Z" fill="white"/>
<path d="M865.261 586V564.182H872.633C874.345 564.182 875.744 564.491 876.831 565.109C877.925 565.719 878.734 566.547 879.26 567.591C879.785 568.635 880.048 569.8 880.048 571.085C880.048 572.371 879.785 573.539 879.26 574.59C878.741 575.641 877.939 576.479 876.852 577.104C875.765 577.722 874.373 578.031 872.676 578.031H867.392V575.688H872.591C873.763 575.688 874.704 575.485 875.414 575.08C876.124 574.675 876.639 574.129 876.959 573.44C877.285 572.744 877.449 571.959 877.449 571.085C877.449 570.212 877.285 569.43 876.959 568.741C876.639 568.053 876.121 567.513 875.403 567.122C874.686 566.724 873.734 566.526 872.548 566.526H867.903V586H865.261ZM884.304 586V564.182H891.676C893.381 564.182 894.78 564.473 895.874 565.055C896.968 565.631 897.777 566.423 898.303 567.431C898.828 568.44 899.091 569.587 899.091 570.872C899.091 572.158 898.828 573.298 898.303 574.292C897.777 575.286 896.971 576.067 895.884 576.636C894.798 577.197 893.409 577.477 891.719 577.477H885.753V575.091H891.634C892.798 575.091 893.736 574.92 894.446 574.58C895.164 574.239 895.682 573.756 896.002 573.131C896.328 572.499 896.492 571.746 896.492 570.872C896.492 569.999 896.328 569.235 896.002 568.582C895.675 567.928 895.153 567.424 894.436 567.069C893.718 566.707 892.77 566.526 891.591 566.526H886.946V586H884.304ZM894.574 576.199L899.943 586H896.875L891.591 576.199H894.574ZM921.903 575.091C921.903 577.392 921.487 579.381 920.656 581.057C919.825 582.733 918.685 584.026 917.237 584.935C915.788 585.844 914.133 586.298 912.272 586.298C910.411 586.298 908.756 585.844 907.308 584.935C905.859 584.026 904.719 582.733 903.888 581.057C903.057 579.381 902.641 577.392 902.641 575.091C902.641 572.79 903.057 570.801 903.888 569.125C904.719 567.449 905.859 566.156 907.308 565.247C908.756 564.338 910.411 563.884 912.272 563.884C914.133 563.884 915.788 564.338 917.237 565.247C918.685 566.156 919.825 567.449 920.656 569.125C921.487 570.801 921.903 572.79 921.903 575.091ZM919.346 575.091C919.346 573.202 919.03 571.607 918.398 570.308C917.773 569.008 916.924 568.024 915.852 567.357C914.786 566.689 913.593 566.355 912.272 566.355C910.951 566.355 909.754 566.689 908.682 567.357C907.616 568.024 906.768 569.008 906.136 570.308C905.511 571.607 905.198 573.202 905.198 575.091C905.198 576.98 905.511 578.575 906.136 579.874C906.768 581.174 907.616 582.158 908.682 582.825C909.754 583.493 910.951 583.827 912.272 583.827C913.593 583.827 914.786 583.493 915.852 582.825C916.924 582.158 917.773 581.174 918.398 579.874C919.03 578.575 919.346 576.98 919.346 575.091ZM924.244 566.526V564.182H940.607V566.526H933.747V586H931.105V566.526H924.244ZM962.186 575.091C962.186 577.392 961.77 579.381 960.939 581.057C960.108 582.733 958.969 584.026 957.52 584.935C956.071 585.844 954.416 586.298 952.555 586.298C950.694 586.298 949.04 585.844 947.591 584.935C946.142 584.026 945.002 582.733 944.171 581.057C943.34 579.381 942.925 577.392 942.925 575.091C942.925 572.79 943.34 570.801 944.171 569.125C945.002 567.449 946.142 566.156 947.591 565.247C949.04 564.338 950.694 563.884 952.555 563.884C954.416 563.884 956.071 564.338 957.52 565.247C958.969 566.156 960.108 567.449 960.939 569.125C961.77 570.801 962.186 572.79 962.186 575.091ZM959.629 575.091C959.629 573.202 959.313 571.607 958.681 570.308C958.056 569.008 957.207 568.024 956.135 567.357C955.069 566.689 953.876 566.355 952.555 566.355C951.234 566.355 950.037 566.689 948.965 567.357C947.9 568.024 947.051 569.008 946.419 570.308C945.794 571.607 945.481 573.202 945.481 575.091C945.481 576.98 945.794 578.575 946.419 579.874C947.051 581.174 947.9 582.158 948.965 582.825C950.037 583.493 951.234 583.827 952.555 583.827C953.876 583.827 955.069 583.493 956.135 582.825C957.207 582.158 958.056 581.174 958.681 579.874C959.313 578.575 959.629 576.98 959.629 575.091ZM964.527 566.526V564.182H980.891V566.526H974.03V586H971.388V566.526H964.527ZM983.093 564.182H986.119L992.17 574.366H992.426L998.477 564.182H1001.5L993.619 577.009V586H990.977V577.009L983.093 564.182ZM1004.92 586V564.182H1012.29C1014 564.182 1015.4 564.491 1016.49 565.109C1017.58 565.719 1018.39 566.547 1018.92 567.591C1019.44 568.635 1019.71 569.8 1019.71 571.085C1019.71 572.371 1019.44 573.539 1018.92 574.59C1018.4 575.641 1017.6 576.479 1016.51 577.104C1015.42 577.722 1014.03 578.031 1012.33 578.031H1007.05V575.688H1012.25C1013.42 575.688 1014.36 575.485 1015.07 575.08C1015.78 574.675 1016.3 574.129 1016.62 573.44C1016.94 572.744 1017.11 571.959 1017.11 571.085C1017.11 570.212 1016.94 569.43 1016.62 568.741C1016.3 568.053 1015.78 567.513 1015.06 567.122C1014.34 566.724 1013.39 566.526 1012.21 566.526H1007.56V586H1004.92ZM1023.96 586V564.182H1037.13V566.526H1026.6V573.898H1036.45V576.241H1026.6V583.656H1037.3V586H1023.96ZM1053.82 569.636C1053.7 568.557 1053.18 567.719 1052.27 567.122C1051.36 566.526 1050.24 566.227 1048.92 566.227C1047.96 566.227 1047.11 566.384 1046.39 566.696C1045.67 567.009 1045.11 567.438 1044.7 567.985C1044.31 568.532 1044.11 569.153 1044.11 569.849C1044.11 570.432 1044.25 570.933 1044.52 571.352C1044.81 571.763 1045.17 572.108 1045.61 572.385C1046.05 572.655 1046.51 572.879 1047 573.056C1047.48 573.227 1047.92 573.365 1048.33 573.472L1050.54 574.068C1051.11 574.217 1051.74 574.423 1052.44 574.686C1053.14 574.949 1053.81 575.308 1054.45 575.762C1055.1 576.21 1055.63 576.785 1056.05 577.488C1056.47 578.191 1056.68 579.054 1056.68 580.077C1056.68 581.256 1056.37 582.321 1055.75 583.273C1055.14 584.224 1054.25 584.981 1053.07 585.542C1051.9 586.103 1050.47 586.384 1048.8 586.384C1047.23 586.384 1045.88 586.131 1044.74 585.627C1043.6 585.123 1042.71 584.42 1042.05 583.518C1041.41 582.616 1041.04 581.568 1040.95 580.375H1043.68C1043.75 581.199 1044.03 581.881 1044.51 582.42C1045 582.953 1045.62 583.351 1046.37 583.614C1047.12 583.869 1047.93 583.997 1048.8 583.997C1049.8 583.997 1050.71 583.834 1051.51 583.507C1052.31 583.173 1052.95 582.712 1053.42 582.122C1053.89 581.526 1054.12 580.83 1054.12 580.034C1054.12 579.31 1053.92 578.72 1053.51 578.266C1053.11 577.811 1052.58 577.442 1051.92 577.158C1051.26 576.874 1050.54 576.625 1049.78 576.412L1047.09 575.645C1045.39 575.155 1044.04 574.455 1043.04 573.546C1042.05 572.637 1041.55 571.447 1041.55 569.977C1041.55 568.756 1041.88 567.69 1042.54 566.781C1043.21 565.865 1044.1 565.155 1045.23 564.651C1046.36 564.139 1047.62 563.884 1049.01 563.884C1050.41 563.884 1051.66 564.136 1052.76 564.64C1053.85 565.137 1054.72 565.819 1055.36 566.685C1056 567.552 1056.35 568.536 1056.38 569.636H1053.82Z" fill="white"/>
<circle cx="1374" cy="495" r="163" fill="#3E9FE6"/>
<path d="M1369.79 514V436.694L1375.26 440.92H1352.02V423.271H1390.05V514H1369.79Z" fill="white"/>
<path d="M1320.04 574H1317.4C1317.24 573.24 1316.97 572.572 1316.58 571.997C1316.2 571.422 1315.73 570.939 1315.17 570.548C1314.63 570.151 1314.02 569.852 1313.35 569.653C1312.68 569.455 1311.99 569.355 1311.26 569.355C1309.94 569.355 1308.75 569.689 1307.67 570.357C1306.61 571.024 1305.76 572.008 1305.13 573.308C1304.5 574.607 1304.19 576.202 1304.19 578.091C1304.19 579.98 1304.5 581.575 1305.13 582.874C1305.76 584.174 1306.61 585.158 1307.67 585.825C1308.75 586.493 1309.94 586.827 1311.26 586.827C1311.99 586.827 1312.68 586.727 1313.35 586.528C1314.02 586.33 1314.63 586.035 1315.17 585.644C1315.73 585.246 1316.2 584.76 1316.58 584.185C1316.97 583.602 1317.24 582.935 1317.4 582.182H1320.04C1319.84 583.297 1319.48 584.295 1318.96 585.175C1318.43 586.056 1317.78 586.805 1317 587.423C1316.21 588.034 1315.34 588.499 1314.36 588.819C1313.4 589.138 1312.37 589.298 1311.26 589.298C1309.4 589.298 1307.75 588.844 1306.3 587.935C1304.85 587.026 1303.71 585.733 1302.88 584.057C1302.05 582.381 1301.63 580.392 1301.63 578.091C1301.63 575.79 1302.05 573.801 1302.88 572.125C1303.71 570.449 1304.85 569.156 1306.3 568.247C1307.75 567.338 1309.4 566.884 1311.26 566.884C1312.37 566.884 1313.4 567.043 1314.36 567.363C1315.34 567.683 1316.21 568.151 1317 568.769C1317.78 569.38 1318.43 570.126 1318.96 571.006C1319.48 571.88 1319.84 572.878 1320.04 574ZM1342.72 578.091C1342.72 580.392 1342.31 582.381 1341.47 584.057C1340.64 585.733 1339.5 587.026 1338.05 587.935C1336.61 588.844 1334.95 589.298 1333.09 589.298C1331.23 589.298 1329.57 588.844 1328.13 587.935C1326.68 587.026 1325.54 585.733 1324.71 584.057C1323.88 582.381 1323.46 580.392 1323.46 578.091C1323.46 575.79 1323.88 573.801 1324.71 572.125C1325.54 570.449 1326.68 569.156 1328.13 568.247C1329.57 567.338 1331.23 566.884 1333.09 566.884C1334.95 566.884 1336.61 567.338 1338.05 568.247C1339.5 569.156 1340.64 570.449 1341.47 572.125C1342.31 573.801 1342.72 575.79 1342.72 578.091ZM1340.16 578.091C1340.16 576.202 1339.85 574.607 1339.22 573.308C1338.59 572.008 1337.74 571.024 1336.67 570.357C1335.6 569.689 1334.41 569.355 1333.09 569.355C1331.77 569.355 1330.57 569.689 1329.5 570.357C1328.43 571.024 1327.59 572.008 1326.95 573.308C1326.33 574.607 1326.02 576.202 1326.02 578.091C1326.02 579.98 1326.33 581.575 1326.95 582.874C1327.59 584.174 1328.43 585.158 1329.5 585.825C1330.57 586.493 1331.77 586.827 1333.09 586.827C1334.41 586.827 1335.6 586.493 1336.67 585.825C1337.74 585.158 1338.59 584.174 1339.22 582.874C1339.85 581.575 1340.16 579.98 1340.16 578.091ZM1364.46 567.182V589H1361.91L1350.02 571.869H1349.81V589H1347.16V567.182H1349.72L1361.65 584.355H1361.87V567.182H1364.46ZM1387.31 574H1384.67C1384.51 573.24 1384.24 572.572 1383.85 571.997C1383.46 571.422 1382.99 570.939 1382.44 570.548C1381.89 570.151 1381.29 569.852 1380.62 569.653C1379.95 569.455 1379.25 569.355 1378.53 569.355C1377.21 569.355 1376.01 569.689 1374.94 570.357C1373.87 571.024 1373.03 572.008 1372.39 573.308C1371.77 574.607 1371.46 576.202 1371.46 578.091C1371.46 579.98 1371.77 581.575 1372.39 582.874C1373.03 584.174 1373.87 585.158 1374.94 585.825C1376.01 586.493 1377.21 586.827 1378.53 586.827C1379.25 586.827 1379.95 586.727 1380.62 586.528C1381.29 586.33 1381.89 586.035 1382.44 585.644C1382.99 585.246 1383.46 584.76 1383.85 584.185C1384.24 583.602 1384.51 582.935 1384.67 582.182H1387.31C1387.11 583.297 1386.75 584.295 1386.22 585.175C1385.7 586.056 1385.04 586.805 1384.26 587.423C1383.48 588.034 1382.6 588.499 1381.63 588.819C1380.66 589.138 1379.63 589.298 1378.53 589.298C1376.67 589.298 1375.01 588.844 1373.57 587.935C1372.12 587.026 1370.98 585.733 1370.15 584.057C1369.31 582.381 1368.9 580.392 1368.9 578.091C1368.9 575.79 1369.31 573.801 1370.15 572.125C1370.98 570.449 1372.12 569.156 1373.57 568.247C1375.01 567.338 1376.67 566.884 1378.53 566.884C1379.63 566.884 1380.66 567.043 1381.63 567.363C1382.6 567.683 1383.48 568.151 1384.26 568.769C1385.04 569.38 1385.7 570.126 1386.22 571.006C1386.75 571.88 1387.11 572.878 1387.31 574ZM1391.58 589V567.182H1404.75V569.526H1394.22V576.898H1404.06V579.241H1394.22V586.656H1404.92V589H1391.58ZM1409.51 589V567.182H1416.88C1418.59 567.182 1419.99 567.491 1421.08 568.109C1422.17 568.719 1422.98 569.547 1423.51 570.591C1424.03 571.635 1424.29 572.8 1424.29 574.085C1424.29 575.371 1424.03 576.539 1423.51 577.59C1422.99 578.641 1422.18 579.479 1421.1 580.104C1420.01 580.722 1418.62 581.031 1416.92 581.031H1411.64V578.688H1416.84C1418.01 578.688 1418.95 578.485 1419.66 578.08C1420.37 577.675 1420.89 577.129 1421.2 576.44C1421.53 575.744 1421.69 574.959 1421.69 574.085C1421.69 573.212 1421.53 572.43 1421.2 571.741C1420.89 571.053 1420.37 570.513 1419.65 570.122C1418.93 569.724 1417.98 569.526 1416.79 569.526H1412.15V589H1409.51ZM1427.36 569.526V567.182H1443.72V569.526H1436.86V589H1434.22V569.526H1427.36Z" fill="white"/>
<circle cx="608" cy="691" r="163" fill="#132052"/>
<path d="M588.526 710L620.343 637.79L618.976 635.926H574.854V619.271H643.585V632.197L610.152 710H588.526ZM574.854 650.591V619.271H591.384V650.591H574.854Z" fill="white"/>
<path d="M520.915 763V741.182H528.287C529.991 741.182 531.39 741.473 532.484 742.055C533.578 742.631 534.388 743.423 534.913 744.431C535.439 745.44 535.701 746.587 535.701 747.872C535.701 749.158 535.439 750.298 534.913 751.292C534.388 752.286 533.581 753.067 532.495 753.636C531.408 754.197 530.02 754.477 528.329 754.477H522.363V752.091H528.244C529.409 752.091 530.346 751.92 531.057 751.58C531.774 751.239 532.292 750.756 532.612 750.131C532.939 749.499 533.102 748.746 533.102 747.872C533.102 746.999 532.939 746.235 532.612 745.582C532.285 744.928 531.763 744.424 531.046 744.069C530.329 743.707 529.38 743.526 528.201 743.526H523.557V763H520.915ZM531.184 753.199L536.554 763H533.486L528.201 753.199H531.184ZM558.513 752.091C558.513 754.392 558.098 756.381 557.267 758.057C556.436 759.733 555.296 761.026 553.847 761.935C552.398 762.844 550.743 763.298 548.882 763.298C547.022 763.298 545.367 762.844 543.918 761.935C542.469 761.026 541.329 759.733 540.498 758.057C539.667 756.381 539.252 754.392 539.252 752.091C539.252 749.79 539.667 747.801 540.498 746.125C541.329 744.449 542.469 743.156 543.918 742.247C545.367 741.338 547.022 740.884 548.882 740.884C550.743 740.884 552.398 741.338 553.847 742.247C555.296 743.156 556.436 744.449 557.267 746.125C558.098 747.801 558.513 749.79 558.513 752.091ZM555.956 752.091C555.956 750.202 555.64 748.607 555.008 747.308C554.383 746.008 553.534 745.024 552.462 744.357C551.397 743.689 550.203 743.355 548.882 743.355C547.561 743.355 546.365 743.689 545.292 744.357C544.227 745.024 543.378 746.008 542.746 747.308C542.121 748.607 541.809 750.202 541.809 752.091C541.809 753.98 542.121 755.575 542.746 756.874C543.378 758.174 544.227 759.158 545.292 759.825C546.365 760.493 547.561 760.827 548.882 760.827C550.203 760.827 551.397 760.493 552.462 759.825C553.534 759.158 554.383 758.174 555.008 756.874C555.64 755.575 555.956 753.98 555.956 752.091ZM577.274 741.182H579.916V755.628C579.916 757.119 579.564 758.451 578.861 759.623C578.165 760.788 577.181 761.707 575.91 762.382C574.639 763.05 573.147 763.384 571.436 763.384C569.724 763.384 568.233 763.05 566.961 762.382C565.69 761.707 564.703 760.788 564 759.623C563.304 758.451 562.956 757.119 562.956 755.628V741.182H565.598V755.415C565.598 756.48 565.832 757.428 566.301 758.259C566.769 759.083 567.437 759.733 568.304 760.209C569.177 760.678 570.221 760.912 571.436 760.912C572.65 760.912 573.694 760.678 574.568 760.209C575.441 759.733 576.109 759.083 576.571 758.259C577.039 757.428 577.274 756.48 577.274 755.415V741.182ZM602.493 741.182V763H599.936L588.047 745.869H587.834V763H585.192V741.182H587.749L599.68 758.355H599.894V741.182H602.493ZM614.513 763H607.78V741.182H614.811C616.927 741.182 618.739 741.619 620.244 742.492C621.75 743.359 622.904 744.605 623.707 746.232C624.509 747.851 624.91 749.79 624.91 752.048C624.91 754.321 624.506 756.278 623.696 757.918C622.886 759.552 621.707 760.809 620.159 761.69C618.611 762.563 616.729 763 614.513 763ZM610.422 760.656H614.342C616.146 760.656 617.641 760.308 618.827 759.612C620.013 758.916 620.898 757.925 621.48 756.64C622.062 755.354 622.354 753.824 622.354 752.048C622.354 750.287 622.066 748.771 621.491 747.499C620.915 746.221 620.056 745.241 618.913 744.559C617.769 743.87 616.345 743.526 614.641 743.526H610.422V760.656ZM641.274 746.636C641.146 745.557 640.628 744.719 639.719 744.122C638.81 743.526 637.695 743.227 636.373 743.227C635.408 743.227 634.562 743.384 633.838 743.696C633.121 744.009 632.56 744.438 632.155 744.985C631.757 745.532 631.558 746.153 631.558 746.849C631.558 747.432 631.697 747.933 631.974 748.352C632.258 748.763 632.62 749.108 633.06 749.385C633.501 749.655 633.962 749.879 634.445 750.056C634.928 750.227 635.372 750.365 635.777 750.472L637.993 751.068C638.561 751.217 639.193 751.423 639.889 751.686C640.592 751.949 641.263 752.308 641.903 752.762C642.549 753.21 643.082 753.785 643.501 754.488C643.92 755.191 644.129 756.054 644.129 757.077C644.129 758.256 643.82 759.321 643.202 760.273C642.592 761.224 641.697 761.981 640.518 762.542C639.346 763.103 637.922 763.384 636.246 763.384C634.683 763.384 633.33 763.131 632.187 762.627C631.05 762.123 630.155 761.42 629.502 760.518C628.856 759.616 628.49 758.568 628.405 757.375H631.132C631.203 758.199 631.48 758.881 631.963 759.42C632.453 759.953 633.071 760.351 633.817 760.614C634.57 760.869 635.379 760.997 636.246 760.997C637.254 760.997 638.16 760.834 638.962 760.507C639.765 760.173 640.4 759.712 640.869 759.122C641.338 758.526 641.572 757.83 641.572 757.034C641.572 756.31 641.37 755.72 640.965 755.266C640.56 754.811 640.028 754.442 639.367 754.158C638.707 753.874 637.993 753.625 637.226 753.412L634.541 752.645C632.837 752.155 631.487 751.455 630.493 750.546C629.498 749.637 629.001 748.447 629.001 746.977C629.001 745.756 629.332 744.69 629.992 743.781C630.66 742.865 631.555 742.155 632.677 741.651C633.806 741.139 635.067 740.884 636.459 740.884C637.865 740.884 639.115 741.136 640.209 741.64C641.302 742.137 642.169 742.819 642.808 743.685C643.454 744.552 643.795 745.536 643.831 746.636H641.274ZM675.32 752.091C675.32 754.392 674.904 756.381 674.073 758.057C673.242 759.733 672.102 761.026 670.653 761.935C669.205 762.844 667.55 763.298 665.689 763.298C663.828 763.298 662.173 762.844 660.725 761.935C659.276 761.026 658.136 759.733 657.305 758.057C656.474 756.381 656.058 754.392 656.058 752.091C656.058 749.79 656.474 747.801 657.305 746.125C658.136 744.449 659.276 743.156 660.725 742.247C662.173 741.338 663.828 740.884 665.689 740.884C667.55 740.884 669.205 741.338 670.653 742.247C672.102 743.156 673.242 744.449 674.073 746.125C674.904 747.801 675.32 749.79 675.32 752.091ZM672.763 752.091C672.763 750.202 672.447 748.607 671.815 747.308C671.19 746.008 670.341 745.024 669.269 744.357C668.203 743.689 667.01 743.355 665.689 743.355C664.368 743.355 663.171 743.689 662.099 744.357C661.033 745.024 660.185 746.008 659.553 747.308C658.928 748.607 658.615 750.202 658.615 752.091C658.615 753.98 658.928 755.575 659.553 756.874C660.185 758.174 661.033 759.158 662.099 759.825C663.171 760.493 664.368 760.827 665.689 760.827C667.01 760.827 668.203 760.493 669.269 759.825C670.341 759.158 671.19 758.174 671.815 756.874C672.447 755.575 672.763 753.98 672.763 752.091ZM679.762 763V741.182H692.845V743.526H682.404V750.898H691.864V753.241H682.404V763H679.762ZM537.446 782.636C537.318 781.557 536.8 780.719 535.891 780.122C534.981 779.526 533.866 779.227 532.545 779.227C531.579 779.227 530.734 779.384 530.01 779.696C529.293 780.009 528.731 780.438 528.327 780.985C527.929 781.532 527.73 782.153 527.73 782.849C527.73 783.432 527.869 783.933 528.146 784.352C528.43 784.763 528.792 785.108 529.232 785.385C529.672 785.655 530.134 785.879 530.617 786.056C531.1 786.227 531.544 786.365 531.949 786.472L534.165 787.068C534.733 787.217 535.365 787.423 536.061 787.686C536.764 787.949 537.435 788.308 538.074 788.762C538.721 789.21 539.253 789.785 539.672 790.488C540.092 791.191 540.301 792.054 540.301 793.077C540.301 794.256 539.992 795.321 539.374 796.273C538.763 797.224 537.869 797.981 536.69 798.542C535.518 799.103 534.094 799.384 532.418 799.384C530.855 799.384 529.502 799.131 528.359 798.627C527.222 798.123 526.327 797.42 525.674 796.518C525.028 795.616 524.662 794.568 524.577 793.375H527.304C527.375 794.199 527.652 794.881 528.135 795.42C528.625 795.953 529.243 796.351 529.989 796.614C530.741 796.869 531.551 796.997 532.418 796.997C533.426 796.997 534.332 796.834 535.134 796.507C535.937 796.173 536.572 795.712 537.041 795.122C537.51 794.526 537.744 793.83 537.744 793.034C537.744 792.31 537.542 791.72 537.137 791.266C536.732 790.811 536.199 790.442 535.539 790.158C534.878 789.874 534.165 789.625 533.398 789.412L530.713 788.645C529.008 788.155 527.659 787.455 526.665 786.546C525.67 785.637 525.173 784.447 525.173 782.977C525.173 781.756 525.503 780.69 526.164 779.781C526.832 778.865 527.726 778.155 528.849 777.651C529.978 777.139 531.239 776.884 532.631 776.884C534.037 776.884 535.287 777.136 536.381 777.64C537.474 778.137 538.341 778.819 538.98 779.685C539.626 780.552 539.967 781.536 540.003 782.636H537.446ZM542.77 777.182H545.796L551.847 787.366H552.102L558.153 777.182H561.179L553.296 790.009V799H550.653V790.009L542.77 777.182ZM581.897 777.182V799H579.34L567.451 781.869H567.238V799H564.596V777.182H567.153L579.085 794.355H579.298V777.182H581.897ZM585.991 779.526V777.182H602.354V779.526H595.494V799H592.852V779.526H585.991ZM606.432 799V777.182H609.074V786.898H620.708V777.182H623.35V799H620.708V789.241H609.074V799H606.432ZM628.639 799V777.182H641.807V779.526H631.281V786.898H641.125V789.241H631.281V796.656H641.977V799H628.639ZM658.501 782.636C658.373 781.557 657.854 780.719 656.945 780.122C656.036 779.526 654.921 779.227 653.6 779.227C652.634 779.227 651.789 779.384 651.065 779.696C650.347 780.009 649.786 780.438 649.381 780.985C648.984 781.532 648.785 782.153 648.785 782.849C648.785 783.432 648.923 783.933 649.2 784.352C649.484 784.763 649.847 785.108 650.287 785.385C650.727 785.655 651.189 785.879 651.672 786.056C652.155 786.227 652.599 786.365 653.003 786.472L655.219 787.068C655.788 787.217 656.42 787.423 657.116 787.686C657.819 787.949 658.49 788.308 659.129 788.762C659.775 789.21 660.308 789.785 660.727 790.488C661.146 791.191 661.356 792.054 661.356 793.077C661.356 794.256 661.047 795.321 660.429 796.273C659.818 797.224 658.923 797.981 657.744 798.542C656.572 799.103 655.148 799.384 653.472 799.384C651.91 799.384 650.557 799.131 649.413 798.627C648.277 798.123 647.382 797.42 646.729 796.518C646.082 795.616 645.717 794.568 645.631 793.375H648.359C648.43 794.199 648.707 794.881 649.19 795.42C649.68 795.953 650.297 796.351 651.043 796.614C651.796 796.869 652.606 796.997 653.472 796.997C654.481 796.997 655.386 796.834 656.189 796.507C656.991 796.173 657.627 795.712 658.096 795.122C658.565 794.526 658.799 793.83 658.799 793.034C658.799 792.31 658.597 791.72 658.192 791.266C657.787 790.811 657.254 790.442 656.594 790.158C655.933 789.874 655.219 789.625 654.452 789.412L651.768 788.645C650.063 788.155 648.714 787.455 647.719 786.546C646.725 785.637 646.228 784.447 646.228 782.977C646.228 781.756 646.558 780.69 647.219 779.781C647.886 778.865 648.781 778.155 649.903 777.651C651.033 777.139 652.293 776.884 653.685 776.884C655.092 776.884 656.342 777.136 657.435 777.64C658.529 778.137 659.396 778.819 660.035 779.685C660.681 780.552 661.022 781.536 661.057 782.636H658.501ZM668.342 777.182V799H665.7V777.182H668.342ZM685.571 782.636C685.443 781.557 684.925 780.719 684.016 780.122C683.106 779.526 681.991 779.227 680.67 779.227C679.704 779.227 678.859 779.384 678.135 779.696C677.418 780.009 676.856 780.438 676.452 780.985C676.054 781.532 675.855 782.153 675.855 782.849C675.855 783.432 675.994 783.933 676.271 784.352C676.555 784.763 676.917 785.108 677.357 785.385C677.797 785.655 678.259 785.879 678.742 786.056C679.225 786.227 679.669 786.365 680.074 786.472L682.29 787.068C682.858 787.217 683.49 787.423 684.186 787.686C684.889 787.949 685.56 788.308 686.199 788.762C686.846 789.21 687.378 789.785 687.797 790.488C688.217 791.191 688.426 792.054 688.426 793.077C688.426 794.256 688.117 795.321 687.499 796.273C686.888 797.224 685.994 797.981 684.815 798.542C683.643 799.103 682.219 799.384 680.543 799.384C678.98 799.384 677.627 799.131 676.484 798.627C675.347 798.123 674.452 797.42 673.799 796.518C673.153 795.616 672.787 794.568 672.702 793.375H675.429C675.5 794.199 675.777 794.881 676.26 795.42C676.75 795.953 677.368 796.351 678.114 796.614C678.866 796.869 679.676 796.997 680.543 796.997C681.551 796.997 682.457 796.834 683.259 796.507C684.062 796.173 684.697 795.712 685.166 795.122C685.635 794.526 685.869 793.83 685.869 793.034C685.869 792.31 685.667 791.72 685.262 791.266C684.857 790.811 684.324 790.442 683.664 790.158C683.003 789.874 682.29 789.625 681.523 789.412L678.838 788.645C677.133 788.155 675.784 787.455 674.79 786.546C673.795 785.637 673.298 784.447 673.298 782.977C673.298 781.756 673.628 780.69 674.289 779.781C674.957 778.865 675.851 778.155 676.974 777.651C678.103 777.139 679.364 776.884 680.756 776.884C682.162 776.884 683.412 777.136 684.506 777.64C685.599 778.137 686.466 778.819 687.105 779.685C687.751 780.552 688.092 781.536 688.128 782.636H685.571Z" fill="white"/>
<circle cx="201" cy="738" r="163" fill="#3E9FE6"/>
<path d="M126.35 753.361C119.307 753.361 113.175 752.077 107.955 749.509C102.818 746.857 98.8826 743.294 96.1483 738.82C93.414 734.346 92.0469 729.291 92.0469 723.657H111.684C111.684 727.469 112.968 730.576 115.537 732.979C118.105 735.299 121.71 736.459 126.35 736.459C129.415 736.459 132.025 735.879 134.18 734.719C136.334 733.559 137.991 731.984 139.151 729.996C140.311 727.924 140.891 725.604 140.891 723.036C140.891 719.059 139.607 715.786 137.038 713.217C134.553 710.649 130.99 709.364 126.35 709.364C123.864 709.364 121.668 709.737 119.763 710.483C117.94 711.229 116.365 712.14 115.04 713.217L105.843 697.681L133.31 679.784L132.191 677.671H95.7754V660.271H156.924V679.163L125.231 699.297L115.288 696.563C116.945 696.066 118.685 695.693 120.508 695.444C122.414 695.113 124.444 694.947 126.598 694.947C133.641 694.947 139.69 696.107 144.744 698.427C149.798 700.747 153.693 704.02 156.427 708.246C159.244 712.389 160.653 717.236 160.653 722.787V724.279C160.653 729.83 159.244 734.801 156.427 739.193C153.693 743.584 149.757 747.064 144.62 749.633C139.565 752.119 133.475 753.361 126.35 753.361ZM213.826 753.361C206.618 753.361 200.445 752.201 195.308 749.881C190.171 747.479 185.986 744.247 182.755 740.187C179.606 736.127 177.245 731.446 175.671 726.143C174.179 720.757 173.434 715.081 173.434 709.116V702.031C173.434 693.746 174.884 686.247 177.784 679.536C180.684 672.824 185.116 667.48 191.082 663.503C197.048 659.526 204.629 657.537 213.826 657.537C223.024 657.537 230.564 659.526 236.446 663.503C242.412 667.48 246.845 672.824 249.745 679.536C252.645 686.247 254.095 693.746 254.095 702.031V709.116C254.095 715.081 253.308 720.757 251.734 726.143C250.242 731.446 247.881 736.127 244.649 740.187C241.501 744.247 237.358 747.479 232.221 749.881C227.166 752.201 221.035 753.361 213.826 753.361ZM213.826 734.594C220.538 734.594 225.509 732.274 228.741 727.634C232.055 722.911 233.712 715.62 233.712 705.76C233.712 695.32 232.014 687.821 228.616 683.264C225.302 678.624 220.372 676.304 213.826 676.304C207.115 676.304 202.102 678.624 198.788 683.264C195.474 687.821 193.816 695.237 193.816 705.511C193.816 715.454 195.432 722.787 198.664 727.51C201.978 732.233 207.032 734.594 213.826 734.594ZM289.354 739.441V676.926H307.003V739.441H289.354ZM267.356 716.324V700.167H329.126V716.324H267.356Z" fill="white"/>
<path d="M155.967 784.636C155.84 783.557 155.321 782.719 154.412 782.122C153.503 781.526 152.388 781.227 151.067 781.227C150.101 781.227 149.256 781.384 148.531 781.696C147.814 782.009 147.253 782.438 146.848 782.985C146.45 783.532 146.252 784.153 146.252 784.849C146.252 785.432 146.39 785.933 146.667 786.352C146.951 786.763 147.313 787.108 147.754 787.385C148.194 787.655 148.656 787.879 149.139 788.056C149.622 788.227 150.065 788.365 150.47 788.472L152.686 789.068C153.254 789.217 153.886 789.423 154.582 789.686C155.286 789.949 155.957 790.308 156.596 790.762C157.242 791.21 157.775 791.785 158.194 792.488C158.613 793.191 158.823 794.054 158.823 795.077C158.823 796.256 158.514 797.321 157.896 798.273C157.285 799.224 156.39 799.981 155.211 800.542C154.039 801.103 152.615 801.384 150.939 801.384C149.377 801.384 148.024 801.131 146.88 800.627C145.744 800.123 144.849 799.42 144.195 798.518C143.549 797.616 143.183 796.568 143.098 795.375H145.825C145.896 796.199 146.173 796.881 146.656 797.42C147.146 797.953 147.764 798.351 148.51 798.614C149.263 798.869 150.073 798.997 150.939 798.997C151.948 798.997 152.853 798.834 153.656 798.507C154.458 798.173 155.094 797.712 155.563 797.122C156.031 796.526 156.266 795.83 156.266 795.034C156.266 794.31 156.063 793.72 155.658 793.266C155.254 792.811 154.721 792.442 154.06 792.158C153.4 791.874 152.686 791.625 151.919 791.412L149.234 790.645C147.53 790.155 146.18 789.455 145.186 788.546C144.192 787.637 143.695 786.447 143.695 784.977C143.695 783.756 144.025 782.69 144.685 781.781C145.353 780.865 146.248 780.155 147.37 779.651C148.499 779.139 149.76 778.884 151.152 778.884C152.558 778.884 153.808 779.136 154.902 779.64C155.996 780.137 156.862 780.819 157.502 781.685C158.148 782.552 158.489 783.536 158.524 784.636H155.967ZM177.485 779.182H180.127V793.628C180.127 795.119 179.775 796.451 179.072 797.623C178.376 798.788 177.392 799.707 176.121 800.382C174.85 801.05 173.358 801.384 171.647 801.384C169.935 801.384 168.443 801.05 167.172 800.382C165.901 799.707 164.914 798.788 164.21 797.623C163.514 796.451 163.166 795.119 163.166 793.628V779.182H165.809V793.415C165.809 794.48 166.043 795.428 166.512 796.259C166.98 797.083 167.648 797.733 168.514 798.209C169.388 798.678 170.432 798.912 171.647 798.912C172.861 798.912 173.905 798.678 174.779 798.209C175.652 797.733 176.32 797.083 176.782 796.259C177.25 795.428 177.485 794.48 177.485 793.415V779.182ZM185.403 801V779.182H192.775C194.479 779.182 195.879 779.473 196.972 780.055C198.066 780.631 198.876 781.423 199.401 782.431C199.927 783.44 200.19 784.587 200.19 785.872C200.19 787.158 199.927 788.298 199.401 789.292C198.876 790.286 198.07 791.067 196.983 791.636C195.896 792.197 194.508 792.477 192.818 792.477H186.852V790.091H192.732C193.897 790.091 194.835 789.92 195.545 789.58C196.262 789.239 196.781 788.756 197.1 788.131C197.427 787.499 197.59 786.746 197.59 785.872C197.59 784.999 197.427 784.235 197.1 783.582C196.774 782.928 196.252 782.424 195.534 782.069C194.817 781.707 193.869 781.526 192.69 781.526H188.045V801H185.403ZM195.673 791.199L201.042 801H197.974L192.69 791.199H195.673ZM204.989 779.182L211.466 797.548H211.722L218.199 779.182H220.969L212.958 801H210.231L202.219 779.182H204.989ZM224.368 801V779.182H237.535V781.526H227.01V788.898H236.853V791.241H227.01V798.656H237.706V801H224.368ZM240.422 779.182H243.448L249.499 789.366H249.755L255.806 779.182H258.831L250.948 792.009V801H248.306V792.009L240.422 779.182ZM114.68 837V815.182H122.052C123.757 815.182 125.156 815.473 126.25 816.055C127.343 816.631 128.153 817.423 128.679 818.431C129.204 819.44 129.467 820.587 129.467 821.872C129.467 823.158 129.204 824.298 128.679 825.292C128.153 826.286 127.347 827.067 126.26 827.636C125.174 828.197 123.785 828.477 122.095 828.477H116.129V826.091H122.01C123.174 826.091 124.112 825.92 124.822 825.58C125.54 825.239 126.058 824.756 126.378 824.131C126.704 823.499 126.868 822.746 126.868 821.872C126.868 820.999 126.704 820.235 126.378 819.582C126.051 818.928 125.529 818.424 124.812 818.069C124.094 817.707 123.146 817.526 121.967 817.526H117.322V837H114.68ZM124.95 827.199L130.319 837H127.251L121.967 827.199H124.95ZM133.87 837V815.182H147.037V817.526H136.512V824.898H146.355V827.241H136.512V834.656H147.208V837H133.87ZM163.731 820.636C163.603 819.557 163.085 818.719 162.176 818.122C161.267 817.526 160.152 817.227 158.831 817.227C157.865 817.227 157.019 817.384 156.295 817.696C155.578 818.009 155.017 818.438 154.612 818.985C154.214 819.532 154.015 820.153 154.015 820.849C154.015 821.432 154.154 821.933 154.431 822.352C154.715 822.763 155.077 823.108 155.517 823.385C155.958 823.655 156.419 823.879 156.902 824.056C157.385 824.227 157.829 824.365 158.234 824.472L160.45 825.068C161.018 825.217 161.65 825.423 162.346 825.686C163.049 825.949 163.72 826.308 164.36 826.762C165.006 827.21 165.539 827.785 165.958 828.488C166.377 829.191 166.586 830.054 166.586 831.077C166.586 832.256 166.277 833.321 165.659 834.273C165.049 835.224 164.154 835.981 162.975 836.542C161.803 837.103 160.379 837.384 158.703 837.384C157.14 837.384 155.787 837.131 154.644 836.627C153.507 836.123 152.612 835.42 151.959 834.518C151.313 833.616 150.947 832.568 150.862 831.375H153.589C153.66 832.199 153.937 832.881 154.42 833.42C154.91 833.953 155.528 834.351 156.274 834.614C157.027 834.869 157.836 834.997 158.703 834.997C159.711 834.997 160.617 834.834 161.419 834.507C162.222 834.173 162.858 833.712 163.326 833.122C163.795 832.526 164.029 831.83 164.029 831.034C164.029 830.31 163.827 829.72 163.422 829.266C163.017 828.811 162.485 828.442 161.824 828.158C161.164 827.874 160.45 827.625 159.683 827.412L156.998 826.645C155.294 826.155 153.944 825.455 152.95 824.546C151.956 823.637 151.458 822.447 151.458 820.977C151.458 819.756 151.789 818.69 152.449 817.781C153.117 816.865 154.012 816.155 155.134 815.651C156.263 815.139 157.524 814.884 158.916 814.884C160.322 814.884 161.572 815.136 162.666 815.64C163.759 816.137 164.626 816.819 165.265 817.685C165.911 818.552 166.252 819.536 166.288 820.636H163.731ZM170.93 837V815.182H178.302C180.014 815.182 181.413 815.491 182.5 816.109C183.593 816.719 184.403 817.547 184.929 818.591C185.454 819.635 185.717 820.8 185.717 822.085C185.717 823.371 185.454 824.539 184.929 825.59C184.41 826.641 183.608 827.479 182.521 828.104C181.434 828.722 180.042 829.031 178.345 829.031H173.061V826.688H178.26C179.432 826.688 180.373 826.485 181.083 826.08C181.793 825.675 182.308 825.129 182.628 824.44C182.954 823.744 183.118 822.959 183.118 822.085C183.118 821.212 182.954 820.43 182.628 819.741C182.308 819.053 181.79 818.513 181.072 818.122C180.355 817.724 179.403 817.526 178.217 817.526H173.572V837H170.93ZM208.382 826.091C208.382 828.392 207.967 830.381 207.136 832.057C206.305 833.733 205.165 835.026 203.716 835.935C202.267 836.844 200.612 837.298 198.752 837.298C196.891 837.298 195.236 836.844 193.787 835.935C192.338 835.026 191.198 833.733 190.367 832.057C189.536 830.381 189.121 828.392 189.121 826.091C189.121 823.79 189.536 821.801 190.367 820.125C191.198 818.449 192.338 817.156 193.787 816.247C195.236 815.338 196.891 814.884 198.752 814.884C200.612 814.884 202.267 815.338 203.716 816.247C205.165 817.156 206.305 818.449 207.136 820.125C207.967 821.801 208.382 823.79 208.382 826.091ZM205.825 826.091C205.825 824.202 205.509 822.607 204.877 821.308C204.252 820.008 203.403 819.024 202.331 818.357C201.266 817.689 200.073 817.355 198.752 817.355C197.43 817.355 196.234 817.689 195.161 818.357C194.096 819.024 193.247 820.008 192.615 821.308C191.99 822.607 191.678 824.202 191.678 826.091C191.678 827.98 191.99 829.575 192.615 830.874C193.247 832.174 194.096 833.158 195.161 833.825C196.234 834.493 197.43 834.827 198.752 834.827C200.073 834.827 201.266 834.493 202.331 833.825C203.403 833.158 204.252 832.174 204.877 830.874C205.509 829.575 205.825 827.98 205.825 826.091ZM230.126 815.182V837H227.569L215.68 819.869H215.467V837H212.825V815.182H215.381L227.313 832.355H227.526V815.182H230.126ZM247.344 820.636C247.217 819.557 246.698 818.719 245.789 818.122C244.88 817.526 243.765 817.227 242.444 817.227C241.478 817.227 240.633 817.384 239.908 817.696C239.191 818.009 238.63 818.438 238.225 818.985C237.827 819.532 237.628 820.153 237.628 820.849C237.628 821.432 237.767 821.933 238.044 822.352C238.328 822.763 238.69 823.108 239.131 823.385C239.571 823.655 240.033 823.879 240.516 824.056C240.998 824.227 241.442 824.365 241.847 824.472L244.063 825.068C244.631 825.217 245.263 825.423 245.959 825.686C246.663 825.949 247.334 826.308 247.973 826.762C248.619 827.21 249.152 827.785 249.571 828.488C249.99 829.191 250.199 830.054 250.199 831.077C250.199 832.256 249.891 833.321 249.273 834.273C248.662 835.224 247.767 835.981 246.588 836.542C245.416 837.103 243.992 837.384 242.316 837.384C240.753 837.384 239.4 837.131 238.257 836.627C237.121 836.123 236.226 835.42 235.572 834.518C234.926 833.616 234.56 832.568 234.475 831.375H237.202C237.273 832.199 237.55 832.881 238.033 833.42C238.523 833.953 239.141 834.351 239.887 834.614C240.64 834.869 241.449 834.997 242.316 834.997C243.324 834.997 244.23 834.834 245.033 834.507C245.835 834.173 246.471 833.712 246.94 833.122C247.408 832.526 247.643 831.83 247.643 831.034C247.643 830.31 247.44 829.72 247.035 829.266C246.631 828.811 246.098 828.442 245.437 828.158C244.777 827.874 244.063 827.625 243.296 827.412L240.611 826.645C238.907 826.155 237.557 825.455 236.563 824.546C235.569 823.637 235.072 822.447 235.072 820.977C235.072 819.756 235.402 818.69 236.062 817.781C236.73 816.865 237.625 816.155 238.747 815.651C239.876 815.139 241.137 814.884 242.529 814.884C243.935 814.884 245.185 815.136 246.279 815.64C247.373 816.137 248.239 816.819 248.878 817.685C249.525 818.552 249.866 819.536 249.901 820.636H247.344ZM254.543 837V815.182H267.711V817.526H257.185V824.898H267.029V827.241H257.185V834.656H267.881V837H254.543ZM284.405 820.636C284.277 819.557 283.759 818.719 282.85 818.122C281.94 817.526 280.825 817.227 279.504 817.227C278.538 817.227 277.693 817.384 276.969 817.696C276.252 818.009 275.69 818.438 275.286 818.985C274.888 819.532 274.689 820.153 274.689 820.849C274.689 821.432 274.828 821.933 275.104 822.352C275.389 822.763 275.751 823.108 276.191 823.385C276.631 823.655 277.093 823.879 277.576 824.056C278.059 824.227 278.503 824.365 278.908 824.472L281.124 825.068C281.692 825.217 282.324 825.423 283.02 825.686C283.723 825.949 284.394 826.308 285.033 826.762C285.68 827.21 286.212 827.785 286.631 828.488C287.051 829.191 287.26 830.054 287.26 831.077C287.26 832.256 286.951 833.321 286.333 834.273C285.722 835.224 284.828 835.981 283.649 836.542C282.477 837.103 281.053 837.384 279.377 837.384C277.814 837.384 276.461 837.131 275.318 836.627C274.181 836.123 273.286 835.42 272.633 834.518C271.987 833.616 271.621 832.568 271.536 831.375H274.263C274.334 832.199 274.611 832.881 275.094 833.42C275.584 833.953 276.202 834.351 276.948 834.614C277.7 834.869 278.51 834.997 279.377 834.997C280.385 834.997 281.291 834.834 282.093 834.507C282.896 834.173 283.531 833.712 284 833.122C284.469 832.526 284.703 831.83 284.703 831.034C284.703 830.31 284.501 829.72 284.096 829.266C283.691 828.811 283.158 828.442 282.498 828.158C281.837 827.874 281.124 827.625 280.357 827.412L277.672 826.645C275.967 826.155 274.618 825.455 273.624 824.546C272.629 823.637 272.132 822.447 272.132 820.977C272.132 819.756 272.462 818.69 273.123 817.781C273.791 816.865 274.685 816.155 275.808 815.651C276.937 815.139 278.198 814.884 279.59 814.884C280.996 814.884 282.246 815.136 283.34 815.64C284.433 816.137 285.3 816.819 285.939 817.685C286.585 818.552 286.926 819.536 286.962 820.636H284.405Z" fill="white"/>
<path d="M388.514 431.542L351.332 458.944L346.192 413.043L388.514 431.542ZM239.011 337.984C249.642 372.301 262.952 396.11 280.915 411.113C298.765 426.022 321.721 432.654 352.602 431.55L352.888 439.545C320.664 440.697 295.573 433.779 275.787 417.253C256.114 400.822 242.199 375.312 231.369 340.352L239.011 337.984Z" fill="#3E9FE6"/>
<path fill-rule="evenodd" clip-rule="evenodd" d="M276.264 528.695C258.3 543.7 244.989 567.51 234.359 601.83L226.717 599.463C237.546 564.5 251.461 538.988 271.135 522.554C290.154 506.668 314.076 499.658 344.523 500.161L346.684 480.858L383.869 508.261L341.545 526.763L343.629 508.15C314.913 507.796 293.271 514.489 276.264 528.695Z" fill="#3E9FE6"/>
</svg>
