<svg width="16" height="25" viewBox="0 0 16 25" fill="none" xmlns="http://www.w3.org/2000/svg">
<path d="M1.99973 23.9206L1.99972 23.9206C1.2947 23.1669 1.2947 21.958 1.99972 21.2044L1.99974 21.2044L10.1436 12.5L1.99974 3.79552C1.2947 3.04195 1.2947 1.83298 1.99974 1.07941C2.72253 0.306864 3.90917 0.306864 4.63196 1.07941L14.0464 11.1419C14.0464 11.1419 14.0464 11.1419 14.0465 11.1419C14.3884 11.5074 14.5753 11.9965 14.5753 12.5C14.5753 13.0034 14.3884 13.4926 14.0465 13.858L1.99973 23.9206ZM1.99973 23.9206C2.72252 24.6931 3.90917 24.6931 4.63196 23.9206C4.63196 23.9206 4.63197 23.9206 4.63197 23.9206L14.0464 13.8581L1.99973 23.9206Z" fill="#dfdfdf" stroke="#dfdfdf"/>
</svg>
