<svg width="16" height="25" viewBox="0 0 16 25" fill="none" xmlns="http://www.w3.org/2000/svg">
<path d="M14.0465 1.07944L14.0465 1.07944C14.7515 1.83305 14.7515 3.04195 14.0465 3.79556L14.0465 3.79558L5.9026 12.5L14.0465 21.2045C14.7515 21.958 14.7515 23.167 14.0465 23.9206C13.3237 24.6931 12.137 24.6931 11.4142 23.9206L1.99978 13.8581C1.99977 13.8581 1.99976 13.8581 1.99975 13.8581C1.65776 13.4926 1.47095 13.0035 1.47095 12.5C1.47095 11.9966 1.65776 11.5074 1.99975 11.142L14.0465 1.07944ZM14.0465 1.07944C13.3237 0.306857 12.137 0.306854 11.4142 1.07943C11.4142 1.07943 11.4142 1.07944 11.4142 1.07944L1.99978 11.1419L14.0465 1.07944Z" fill="#202020" stroke="#202020"/>
</svg>
